PathFileType	4	(X/Y/Z)	/Users/itak/Documents/Research/Walk-IL/dataset/trc/00038_00004.trc
DataRate	CameraRate	NumFrames	NumMarkers	Units	OrigDataRate	OrigDataStartFrame	OrigNumFrames
100.000000	100.000000	4	53	mm	100.000000	0	524
Frame#	Time	RPSI			LPSI			L3			STRN			T10			C7			CLAV			RBAK			LBAK			LSHO			LUPA			LAEL			LAOL			LWTS			LWPS			LFRA			LIFD			LHPS			LHTS			RSHO			RUPA			RAEL			RAOL			RWTS			RWPS			RFRA			RIFD			RHTS			RHPS			RBHD			LFHD			RFHD			LBHD			LHIP			RHIP			RASI			LASI			LKNE			LTHI			LANK			LTIP			LTOE			LMT1			LMT5			LHEE			RKNE			RTHI			RANK			RTIP			RTOE			RMT1			RMT5			RHEE			
		X1	Y1	Z1	X2	Y2	Z2	X3	Y3	Z3	X4	Y4	Z4	X5	Y5	Z5	X6	Y6	Z6	X7	Y7	Z7	X8	Y8	Z8	X9	Y9	Z9	X10	Y10	Z10	X11	Y11	Z11	X12	Y12	Z12	X13	Y13	Z13	X14	Y14	Z14	X15	Y15	Z15	X16	Y16	Z16	X17	Y17	Z17	X18	Y18	Z18	X19	Y19	Z19	X20	Y20	Z20	X21	Y21	Z21	X22	Y22	Z22	X23	Y23	Z23	X24	Y24	Z24	X25	Y25	Z25	X26	Y26	Z26	X27	Y27	Z27	X28	Y28	Z28	X29	Y29	Z29	X30	Y30	Z30	X31	Y31	Z31	X32	Y32	Z32	X33	Y33	Z33	X34	Y34	Z34	X35	Y35	Z35	X36	Y36	Z36	X37	Y37	Z37	X38	Y38	Z38	X39	Y39	Z39	X40	Y40	Z40	X41	Y41	Z41	X42	Y42	Z42	X43	Y43	Z43	X44	Y44	Z44	X45	Y45	Z45	X46	Y46	Z46	X47	Y47	Z47	X48	Y48	Z48	X49	Y49	Z49	X50	Y50	Z50	X51	Y51	Z51	X52	Y52	Z52	X53	Y53	Z53	

1	0	-1218.916625976562	1076.89794921875	135.4860229492188	-1233.18212890625	1067.373046875	-27.8369197845459	-1233.31982421875	1126.741088867188	44.38737487792969	-1019.682556152344	1327.753051757812	37.7950325012207	-1265.745849609375	1270.337768554688	41.7152099609375	-1225.642944335938	1539.580444335938	29.81362152099609	-1065.442260742188	1452.86669921875	33.19690704345703	-1272.724975585938	1401.316162109375	111.0090942382812	-1244.606323242188	1497.58056640625	-67.52143859863281	-1143.871215820312	1508.1943359375	-143.7158355712891	-1168.207641601562	1378.401000976562	-218.3271331787109	-1151.236572265625	1159.230712890625	-239.7711486816406	-1200.450439453125	1145.03564453125	-146.2314910888672	-1050.032104492188	910.4779663085938	-187.4129791259766	-1128.891845703125	893.5731201171875	-225.6542053222656	-1133.66796875	1044.329711914062	-244.9207153320312	-1017.357299804688	729.9586181640625	-162.3047790527344	-1092.999389648438	804.47314453125	-225.5256500244141	-1027.267456054688	817.41455078125	-199.6343841552734	-1148.856689453125	1527.434936523438	205.3064575195312	-1160.226806640625	1456.02001953125	276.0513305664062	-1184.838745117188	1185.410522460938	297.0822448730469	-1182.526489257812	1158.965698242188	199.8011779785156	-1051.25732421875	927.9473876953125	267.7201538085938	-1116.10888671875	912.8967895507812	331.6301879882812	-1170.559814453125	1109.9404296875	311.9631652832031	-1036.620239257812	748.4190063476562	247.8992004394531	-1016.326354980469	820.0262451171875	283.3745422363281	-1072.251953125	814.0524291992188	332.1215515136719	-1205.447265625	1719.531860351562	6.211257457733154	-991.862060546875	1748.169677734375	43.23738861083984	-1034.728759765625	1751.594482421875	-45.66317367553711	-1138.180541992188	1712.857299804688	134.0114898681641	-1143.220458984375	964.1671752929688	-142.4533233642578	-1115.937133789062	949.3419799804688	208.7051544189453	-1001.108947753906	999.1055908203125	146.0003814697266	-1024.821411132812	1014.003356933594	-87.34883880615234	-1094.49072265625	519.635498046875	-89.79866790771484	-1119.251953125	655.4442138671875	-127.5311813354492	-1191.099365234375	43.40210342407227	-84.14406585693359	-1175.136962890625	289.3088073730469	-104.0789260864258	-975.1319580078125	41.90027618408203	-14.84566974639893	-1034.0341796875	49.82077789306641	0.3300459086894989	-1067.1005859375	41.91145324707031	-100.9783477783203	-1261.55224609375	51.41110229492188	-33.09930801391602	-1096.091430664062	527.0692749023438	175.9101409912109	-1075.173706054688	795.40185546875	221.9384613037109	-1206.802734375	47.00090026855469	152.46826171875	-1121.253295898438	405.3833312988281	175.499755859375	-972.9597778320312	45.55925369262695	112.8073272705078	-1036.510620117188	51.97045135498047	82.45607757568359	-1057.857788085938	44.748779296875	176.9658813476562	-1260.580322265625	46.871826171875	106.5087127685547	
2	0.01	-1218.968017578125	1076.888061523438	135.3965148925781	-1233.155395507812	1067.3623046875	-27.92813301086426	-1233.311645507812	1126.73681640625	44.28043746948242	-1019.708251953125	1327.77001953125	37.80773162841797	-1265.77587890625	1270.291748046875	41.58845138549805	-1225.802368164062	1539.605346679688	29.67120742797852	-1065.535522460938	1452.838989257812	33.22580337524414	-1272.871948242188	1401.257934570312	110.8436126708984	-1244.657958984375	1497.58056640625	-67.61306762695312	-1143.80322265625	1508.216674804688	-143.7545318603516	-1168.063354492188	1378.409057617188	-218.3912811279297	-1151.018676757812	1159.241455078125	-239.7984924316406	-1200.3203125	1145.029663085938	-146.3504638671875	-1049.952514648438	910.4744262695312	-187.4062042236328	-1128.672729492188	893.5827026367188	-225.7041778564453	-1133.424072265625	1044.340454101562	-244.9533081054688	-1017.115600585938	729.8819580078125	-162.2653656005859	-1092.744995117188	804.4962768554688	-225.5333099365234	-1027.096557617188	817.3765869140625	-199.5812377929688	-1149.105224609375	1527.422729492188	205.250732421875	-1160.47998046875	1455.97314453125	276.0097351074219	-1185.046752929688	1185.35205078125	296.9942016601562	-1182.685913085938	1158.926391601562	199.6794586181641	-1051.4052734375	927.9819946289062	267.7232360839844	-1116.184204101562	912.8685302734375	331.6172485351562	-1170.829711914062	1109.879760742188	311.8227844238281	-1036.295043945312	748.6472778320312	247.8154907226562	-1016.382141113281	820.0900268554688	283.3046569824219	-1072.389404296875	814.02294921875	332.134521484375	-1205.5322265625	1719.552368164062	6.17597770690918	-991.9852905273438	1748.163208007812	43.33916854858398	-1034.776489257812	1751.582885742188	-45.59823608398438	-1138.379760742188	1712.835083007812	133.9956665039062	-1143.1279296875	964.1609497070312	-142.5174865722656	-1112.318359375	952.1542358398438	212.2374114990234	-1001.131164550781	999.1087036132812	146.0041046142578	-1024.726684570312	1013.988159179688	-87.35874938964844	-1094.56103515625	519.6353149414062	-89.81505584716797	-1119.369750976562	655.4681396484375	-127.5958709716797	-1191.099975585938	43.3932991027832	-84.14994812011719	-1175.2451171875	289.3171691894531	-104.134895324707	-975.1007080078125	41.84127426147461	-14.83880043029785	-1034.02978515625	49.8102912902832	0.3448880016803741	-1067.096069335938	41.90760040283203	-100.9829025268555	-1261.548950195312	51.40625381469727	-33.10008239746094	-1096.129760742188	527.1116333007812	175.8954315185547	-1075.240478515625	795.3446044921875	221.9826965332031	-1206.86328125	47.01127243041992	152.44140625	-1121.244140625	405.391357421875	175.5162658691406	-972.9637451171875	45.55431365966797	112.7990798950195	-1036.51220703125	51.96470642089844	82.45962524414062	-1057.7900390625	44.77500534057617	176.9551086425781	-1260.589111328125	46.87088012695312	106.5082168579102	
3	0.02	-1219.030517578125	1076.879028320312	135.2843017578125	-1233.123413085938	1067.348510742188	-28.04662132263184	-1233.302001953125	1126.732666015625	44.14651489257812	-1019.744140625	1327.792358398438	37.8214225769043	-1265.82275390625	1270.233520507812	41.42025756835938	-1225.986572265625	1539.628051757812	29.49513816833496	-1065.638671875	1452.8046875	33.26427841186523	-1273.040893554688	1401.188110351562	110.6416015625	-1244.719604492188	1497.56982421875	-67.74501037597656	-1143.728271484375	1508.244140625	-143.8032379150391	-1167.886596679688	1378.419799804688	-218.4743804931641	-1150.742797851562	1159.255859375	-239.8427734375	-1200.148315429688	1145.023071289062	-146.5000152587891	-1049.826782226562	910.4794921875	-187.3905487060547	-1128.39208984375	893.5941772460938	-225.7655029296875	-1133.1142578125	1044.355224609375	-244.9976654052734	-1016.794616699219	729.77197265625	-162.2280426025391	-1092.413940429688	804.5217895507812	-225.5429534912109	-1026.867065429688	817.3366088867188	-199.5109100341797	-1149.401977539062	1527.405151367188	205.1781005859375	-1160.802490234375	1455.91455078125	275.9505310058594	-1185.314086914062	1185.27880859375	296.871826171875	-1182.867797851562	1158.878662109375	199.5321044921875	-1051.588989257812	928.0252685546875	267.7104187011719	-1116.284301757812	912.8314819335938	331.5875854492188	-1171.140625	1109.806396484375	311.6579895019531	-1035.992797851562	748.866455078125	247.7313690185547	-1016.43701171875	820.1815795898438	283.2248229980469	-1072.538330078125	813.9904174804688	332.1411743164062	-1205.641235351562	1719.578247070312	6.12020206451416	-992.1485595703125	1748.149169921875	43.4685173034668	-1034.832885742188	1751.569946289062	-45.52006912231445	-1138.649047851562	1712.816650390625	133.9682312011719	-1143.016967773438	964.153564453125	-142.6024780273438	-1108.416625976562	955.1854858398438	216.0320281982422	-1001.161987304688	999.1141967773438	146.0050354003906	-1024.609375	1013.968872070312	-87.37197113037109	-1094.644897460938	519.6328125	-89.83640289306641	-1119.502197265625	655.4935302734375	-127.6719589233398	-1191.10205078125	43.38231658935547	-84.15890502929688	-1175.371215820312	289.3266906738281	-104.2021408081055	-975.0662231445312	41.77523803710938	-14.83073997497559	-1034.022216796875	49.80064392089844	0.3613447546958923	-1067.092651367188	41.90311813354492	-100.9896392822266	-1261.544311523438	51.39941787719727	-33.10126113891602	-1096.165771484375	527.1616821289062	175.8749542236328	-1075.303466796875	795.2838134765625	222.031005859375	-1206.923583984375	47.02128601074219	152.4158782958984	-1121.227172851562	405.3987121582031	175.5339660644531	-972.9659423828125	45.55038452148438	112.7912902832031	-1036.513061523438	51.96173095703125	82.46145629882812	-1057.6982421875	44.81320953369141	176.9410095214844	-1260.598754882812	46.87064361572266	106.5098114013672	
4	0.03	-1219.10107421875	1076.87255859375	135.1536254882812	-1233.086791992188	1067.33203125	-28.18940353393555	-1233.29150390625	1126.72900390625	43.99092864990234	-1019.791015625	1327.820068359375	37.83490753173828	-1265.8876953125	1270.165649414062	41.21440887451172	-1226.18017578125	1539.643432617188	29.29421043395996	-1065.74267578125	1452.764892578125	33.30956268310547	-1273.217895507812	1401.110961914062	110.4135513305664	-1244.786376953125	1497.544799804688	-67.91994476318359	-1143.653686523438	1508.275512695312	-143.8608093261719	-1167.686889648438	1378.4326171875	-218.5753784179688	-1150.417358398438	1159.2734375	-239.9051666259766	-1199.939086914062	1145.016357421875	-146.6741790771484	-1049.645629882812	910.4971313476562	-187.3636016845703	-1128.057250976562	893.607421875	-225.8361206054688	-1132.748413085938	1044.373046875	-245.0540466308594	-1016.394104003906	729.6356811523438	-162.2014312744141	-1092.007934570312	804.5469970703125	-225.5526275634766	-1026.578735351562	817.3021240234375	-199.4252319335938	-1149.7275390625	1527.3818359375	205.0905914306641	-1161.183837890625	1455.847290039062	275.8718566894531	-1185.630859375	1185.194702148438	296.7156982421875	-1183.056762695312	1158.82470703125	199.3676300048828	-1051.800170898438	928.0731201171875	267.676513671875	-1116.410400390625	912.7864990234375	331.5341186523438	-1171.46875	1109.724609375	311.4796447753906	-1035.75244140625	749.0498046875	247.6554718017578	-1016.494201660156	820.287109375	283.1396789550781	-1072.682250976562	813.9568481445312	332.1344909667969	-1205.7705078125	1719.608520507812	6.038646697998047	-992.34716796875	1748.125610351562	43.62020492553711	-1034.893920898438	1751.557373046875	-45.4334831237793	-1138.983032226562	1712.806396484375	133.9262084960938	-1142.89501953125	964.1455688476562	-142.7067718505859	-1104.787353515625	958.0073852539062	219.542724609375	-1001.201721191406	999.1224365234375	146.0012969970703	-1024.475708007812	1013.945861816406	-87.38801574707031	-1094.735961914062	519.6271362304688	-89.86197662353516	-1119.632690429688	655.51611328125	-127.7527160644531	-1191.10595703125	43.36996459960938	-84.17071533203125	-1175.505004882812	289.3368225097656	-104.2761993408203	-975.0319213867188	41.70818710327148	-14.82201194763184	-1034.012084960938	49.79264450073242	0.3779924511909485	-1067.091552734375	41.89838790893555	-100.9981460571289	-1261.538696289062	51.39099884033203	-33.10282516479492	-1096.193481445312	527.2156982421875	175.8478546142578	-1075.3505859375	795.2274780273438	222.07861328125	-1206.9755859375	47.02927017211914	152.3958129882812	-1121.201171875	405.4038696289062	175.5500946044922	-972.9658813476562	45.54838180541992	112.7846221923828	-1036.512573242188	51.96289825439453	82.46028137207031	-1057.591430664062	44.85934066772461	176.9247283935547	-1260.6083984375	46.87155151367188	106.5138702392578	
